<?xml version="1.0" encoding="UTF-8"?>
<svg xmlns="http://www.w3.org/2000/svg" xmlns:xlink="http://www.w3.org/1999/xlink" width="20px" height="px" viewBox="0 0 20 20" version="1.1">
<g id="surface1">
<path style=" stroke:none;fill-rule:nonzero;fill:rgb(0%,0%,0%);fill-opacity:1;" d="M 2.1875 5.0625 C 1.882812 5.195312 1.679688 5.496094 1.679688 5.820312 C 1.679688 6.164062 1.828125 6.414062 2.128906 6.574219 L 2.285156 6.660156 L 17.714844 6.660156 L 17.890625 6.5625 C 18.152344 6.414062 18.292969 6.1875 18.3125 5.882812 C 18.332031 5.605469 18.257812 5.414062 18.058594 5.226562 C 17.804688 4.984375 18.402344 5 9.992188 5 C 3.230469 5.003906 2.308594 5.011719 2.1875 5.0625 Z M 2.1875 5.0625 "/>
<path style=" stroke:none;fill-rule:nonzero;fill:rgb(0%,0%,0%);fill-opacity:1;" d="M 2.164062 9.234375 C 1.996094 9.308594 1.769531 9.550781 1.714844 9.714844 C 1.597656 10.074219 1.742188 10.488281 2.058594 10.703125 L 2.203125 10.800781 L 17.796875 10.800781 L 17.941406 10.703125 C 18.023438 10.648438 18.136719 10.535156 18.195312 10.453125 C 18.289062 10.316406 18.300781 10.261719 18.300781 10 C 18.300781 9.738281 18.289062 9.683594 18.195312 9.546875 C 18.136719 9.464844 18.023438 9.351562 17.941406 9.296875 L 17.796875 9.199219 L 10.042969 9.191406 C 3.605469 9.183594 2.265625 9.191406 2.164062 9.234375 Z M 2.164062 9.234375 "/>
<path style=" stroke:none;fill-rule:nonzero;fill:rgb(0%,0%,0%);fill-opacity:1;" d="M 2.304688 13.355469 C 1.902344 13.480469 1.679688 13.773438 1.679688 14.167969 C 1.683594 14.503906 1.886719 14.808594 2.195312 14.9375 C 2.324219 14.992188 3.164062 15 10.007812 15 C 17.339844 15 17.683594 14.996094 17.832031 14.925781 C 18.449219 14.644531 18.484375 13.773438 17.890625 13.4375 L 17.714844 13.339844 L 10.058594 13.332031 C 5.847656 13.328125 2.359375 13.339844 2.304688 13.355469 Z M 2.304688 13.355469 "/>
</g>
</svg>
