<?xml version="1.0" encoding="UTF-8"?>
<svg xmlns="http://www.w3.org/2000/svg" xmlns:xlink="http://www.w3.org/1999/xlink" width="20px" height="px" viewBox="0 0 20 20" version="1.1">
<g id="surface1">
<path style=" stroke:none;fill-rule:nonzero;fill:#ffffff;fill-opacity:1;" d="M 4.988281 4.988281 C 4.671875 5.300781 4.417969 5.566406 4.417969 5.574219 C 4.417969 5.585938 5.410156 6.582031 6.621094 7.796875 L 8.824219 10 L 6.617188 12.207031 L 4.410156 14.417969 L 5.582031 15.589844 L 7.792969 13.382812 L 10 11.175781 L 12.207031 13.382812 L 14.417969 15.589844 L 15.589844 14.417969 L 13.382812 12.207031 L 11.175781 10 L 13.378906 7.796875 C 14.589844 6.582031 15.582031 5.582031 15.582031 5.574219 C 15.582031 5.554688 14.445312 4.417969 14.425781 4.417969 C 14.414062 4.417969 13.417969 5.410156 12.203125 6.621094 L 10 8.824219 L 7.796875 6.621094 C 6.582031 5.410156 5.582031 4.417969 5.574219 4.417969 C 5.566406 4.417969 5.300781 4.671875 4.988281 4.988281 Z M 4.988281 4.988281 "/>
</g>
</svg>
